<svg xmlns="http://www.w3.org/2000/svg" version="1.1" xmlns:xlink="http://www.w3.org/1999/xlink" xmlns:svgjs="http://svgjs.dev/svgjs" width="2000" height="1892" viewBox="0 0 2000 1892"><g transform="matrix(1,0,0,1,-0.9313851509057258,0.7674063986468127)"><svg viewBox="0 0 261 247" data-background-color="#ffffff" preserveAspectRatio="xMidYMid meet" height="1892" width="2000" xmlns="http://www.w3.org/2000/svg" xmlns:xlink="http://www.w3.org/1999/xlink"><g id="tight-bounds" transform="matrix(1,0,0,1,0.12158672117232072,-0.09997365579206985)"><svg viewBox="0 0 260.75686751663443 247.2" height="247.2" width="260.75686751663443"><g><svg viewBox="0 0 260.75686751663443 247.2" height="247.2" width="260.75686751663443"><g><svg viewBox="0 0 260.75686751663443 247.2" height="247.2" width="260.75686751663443"><g id="textblocktransform"><svg viewBox="0 0 260.75686751663443 247.2" height="247.2" width="260.75686751663443" id="textblock"><g><svg viewBox="0 0 260.75686751663443 247.2" height="247.2" width="260.75686751663443"><path d="M260.146 53.02C258.921 27.36 255.427 20.227 255.427 20.227 244.7-6.202 231.314-0.506 219.288 3.292 198.056 3.446 176.91 9.091 155.726 12.119 111.264 12.581 66.422 4.986 22.18 23.717 18.024 29.464-4.311 24.846 0.739 56.304 2.063 69.39 6.893 83.913 6.746 95.922 7.408 98.026 8.327 93.202 8.72 96.23 10.093 104.39 12.336 100.541 14.175 105.365 11.613 118.246 13.452 128.971 15.205 140.21 12.115 143.135 8.156 141.749 6.378 151.449 6.194 158.479 5.201 157.145 4.11 156.837 3.314 156.632 1.708 157.402 1.977 159.608 2.897 167.152-1.051 171.514 1.426 178.904-0.278 186.91 2.603 193.838 2.21 202.511 2.161 204.255 2.431 205.744 2.86 206.154 4.76 208.361 1.99 212.672 2.284 217.342 21.775 249.262 42.922 227.195 62.891 241.872 68.076 231.608 64.178 245.516 66.25 243.36 67.868 240.846 69.045 251.263 70.871 245.362 71.153 243.668 70.724 239.665 71.73 240.435 72.257 240.846 72.723 240.743 72.796 238.382 72.906 234.841 71.938 237.048 71.681 235.201 74.463 225.861 73.777 248.081 76.388 247.158 76.265 244.438 75.505 240.538 77.062 241.051 78.607 237.151 78.656 233.918 80.029 242.693 80.078 244.592 80.323 245.926 80.715 246.85 85.006 237.305 89.272 250.237 93.771 245.926 96.529 241.205 99.177 248.492 101.972 246.696 102.953 245.259 103.946 242.693 104.889 247.004 116.449 247.928 128.769 244.079 139.729 247.158 169.015 241.41 200.311 249.518 231.191 241.923 238.473 238.998 246.037 234.841 253.134 231.506 253.134 231.506 258.884 222.371 258.884 181.316S260.11 145.393 260.293 112.703C260.477 80.013 261.335 78.679 260.11 53.02Z" opacity="1" fill="#ed3b43" data-fill-palette-color="tertiary"></path><g transform="matrix(1,0,0,1,55.76831999999999,26.230666666666668)"><svg width="149.22022751663445" viewBox="3.690000057220459 -36.22999954223633 29.05000114440918 37.90999984741211" height="194.73866666666666" data-palette-color="#ffffff"><path d="M24.19-14.43L24.19-32.71Q24.39-33.52 24.54-33.89 24.68-34.25 25.17-34.38L25.17-34.38 31.49-35.86Q31.79-35.96 32.13-35.96L32.13-35.96Q32.45-35.96 32.59-35.74 32.74-35.52 32.74-34.91L32.74-34.91Q32.59-34.33 32.5-33.12 32.4-31.91 32.35-30.47 32.3-29.03 32.28-27.58 32.25-26.12 32.25-25.05L32.25-25.05 32.25-23.71Q32.25-22.19 32.23-20.41 32.2-18.63 32.17-16.8 32.13-14.97 32.08-13.18 32.03-11.4 31.98-9.84L31.98-9.84 31.84-5.66Q31.81-5.54 31.81-5.44 31.81-5.35 31.81-5.25L31.81-5.25 31.81-4.88Q31.81-4.47 31.82-4.19 31.84-3.91 31.84-3.69L31.84-3.69Q31.84-3.44 31.8-3.25 31.76-3.05 31.62-2.87 31.47-2.69 31.21-2.49 30.96-2.29 30.52-2L30.52-2Q30.27-1.83 29.71-1.5 29.15-1.17 28.47-0.76 27.78-0.34 27.05 0.1 26.32 0.54 25.71 0.89 25.1 1.25 24.72 1.46 24.34 1.68 24.34 1.68L24.34 1.68 13.01-15.75 11.99-1.46Q11.96-1.27 11.9-1.05 11.84-0.83 11.57-0.71L11.57-0.71Q11.35-0.61 10.82-0.4 10.28-0.2 9.56 0.07 8.84 0.34 8.04 0.62 7.25 0.9 6.54 1.14 5.83 1.37 5.29 1.51 4.74 1.66 4.54 1.66L4.54 1.66Q4.17 1.66 3.93 1.46 3.69 1.27 3.69 0.76L3.69 0.76Q3.93-2.29 4.25-5.9 4.57-9.5 4.86-13.28 5.15-17.07 5.41-20.84 5.66-24.61 5.83-28L5.83-28Q5.83-28.1 5.53-28.65 5.22-29.2 4.85-29.85 4.47-30.49 4.16-31.07 3.86-31.64 3.86-31.79L3.86-31.79Q3.86-31.96 4.04-32.1 4.22-32.25 4.64-32.5L4.64-32.5 11.16-36.18Q11.23-36.18 11.36-36.21 11.5-36.23 11.6-36.23L11.6-36.23Q11.87-36.23 12.02-36.17 12.18-36.11 12.35-35.79L12.35-35.79 24.19-14.43Z" opacity="1" transform="matrix(1,0,0,1,0,0)" fill="#ffffff" class="undefined-text-0" data-fill-palette-color="quaternary" id="text-0"></path></svg></g></svg></g></svg></g></svg></g><g></g></svg></g><defs></defs></svg><rect width="260.75686751663443" height="247.2" fill="none" stroke="none" visibility="hidden"></rect></g></svg></g></svg>